<svg xmlns="http://www.w3.org/2000/svg" width="25.915" height="25.224" viewBox="0 0 25.915 25.224">
  <g id="person" transform="translate(0)">
    <g id="Group_475" data-name="Group 475" transform="translate(0)">
      <path id="Path_431" data-name="Path 431" d="M18.957,18.612a6.394,6.394,0,0,0,6.479-6.306,6.481,6.481,0,0,0-12.957,0A6.394,6.394,0,0,0,18.957,18.612Zm4.319-6.306a4.321,4.321,0,1,1-4.319-4.2A4.263,4.263,0,0,1,23.276,12.306Zm8.638,16.816a2.1,2.1,0,0,1-2.16,2.1H8.16A2.1,2.1,0,0,1,6,29.122c0-2.1,2.16-8.408,12.957-8.408S31.914,27.02,31.914,29.122Zm-2.16-.008a5.553,5.553,0,0,0-1.8-3.5c-1.408-1.371-4.058-2.8-9-2.8s-7.593,1.429-9,2.8a5.565,5.565,0,0,0-1.8,3.5Z" transform="translate(-6 -6)"/>
    </g>
  </g>
</svg>
